HIERARCHY
ROOT Hips
{
	OFFSET 0.000000 0.000000 0.000000
	CHANNELS 6 Xposition Yposition Zposition Xrotation Yrotation Zrotation
	JOINT Thigh.L
	{
		OFFSET 0.053986 0.029422 -0.092840
		CHANNELS 3 Xrotation Yrotation Zrotation
		JOINT Shin.L
		{
			OFFSET 0.058727 0.009483 -0.409953
			CHANNELS 3 Xrotation Yrotation Zrotation
			JOINT Foot.L
			{
				OFFSET -0.041577 0.032039 -0.430915
				CHANNELS 3 Xrotation Yrotation Zrotation
				JOINT Toe.L
				{
					OFFSET 0.046367 -0.122843 -0.063704
					CHANNELS 3 Xrotation Yrotation Zrotation
					End Site
					{
						OFFSET 0.000000 0.050000 0.000000
					}
				}
			}
		}
	}
	JOINT Thigh.R
	{
		OFFSET -0.059243 0.024828 -0.104541
		CHANNELS 3 Xrotation Yrotation Zrotation
		JOINT Shin.R
		{
			OFFSET -0.047748 0.016505 -0.392323
			CHANNELS 3 Xrotation Yrotation Zrotation
			JOINT Foot.R
			{
				OFFSET 0.014552 0.020471 -0.439848
				CHANNELS 3 Xrotation Yrotation Zrotation
				JOINT Toe.R
				{
					OFFSET -0.038283 -0.123654 -0.063651
					CHANNELS 3 Xrotation Yrotation Zrotation
					End Site
					{
						OFFSET 0.000000 0.050000 0.000000
					}
				}
			}
		}
	}
	JOINT Spine
	{
		OFFSET -0.002504 0.022556 0.110721
		CHANNELS 3 Xrotation Yrotation Zrotation
		JOINT Spine.2
		{
			OFFSET 0.007816 0.004393 0.138116
			CHANNELS 3 Xrotation Yrotation Zrotation
			JOINT Chest
			{
				OFFSET -0.010343 -0.021956 0.053557
				CHANNELS 3 Xrotation Yrotation Zrotation
				JOINT Neck
				{
					OFFSET -0.010854 0.024113 0.165007
					CHANNELS 3 Xrotation Yrotation Zrotation
					JOINT Head
					{
						OFFSET 0.023984 -0.022681 0.169020
						CHANNELS 3 Xrotation Yrotation Zrotation
						End Site
						{
							OFFSET 0.000000 0.050000 0.000000
						}
					}
				}
				JOINT Clavicle.L
				{
					OFFSET 0.045553 0.004458 0.084968
					CHANNELS 3 Xrotation Yrotation Zrotation
					JOINT UpperArm.L
					{
						OFFSET 0.118878 0.014016 0.058866
						CHANNELS 3 Xrotation Yrotation Zrotation
						JOINT ForeArm.L
						{
							OFFSET 0.265927 0.039501 -0.075209
							CHANNELS 3 Xrotation Yrotation Zrotation
							JOINT Hand.L
							{
								OFFSET 0.267182 0.002917 0.021567
								CHANNELS 3 Xrotation Yrotation Zrotation
								JOINT Thumb1.L
								{
									OFFSET 0.154604 0.001306 0.009654
									CHANNELS 3 Xrotation Yrotation Zrotation
									JOINT Thumb2.L
									{
										OFFSET 0.029901 0.000326 0.002414
										CHANNELS 3 Xrotation Yrotation Zrotation
										End Site
										{
											OFFSET 0.024917 0.000272 0.002011
										}
									}
								}
								JOINT Index1.L
								{
									OFFSET 0.137604 0.001306 0.009654
									CHANNELS 3 Xrotation Yrotation Zrotation
									JOINT Index2.L
									{
										OFFSET 0.029901 0.000326 0.002414
										CHANNELS 3 Xrotation Yrotation Zrotation
										JOINT Index3.L
										{
											OFFSET 0.021927 0.000239 0.001770
											CHANNELS 3 Xrotation Yrotation Zrotation
											End Site
											{
												OFFSET 0.017941 0.000196 0.001448
											}
										}
									}
								}
								JOINT Middle1.L
								{
									OFFSET 0.119604 0.001306 0.009654
									CHANNELS 3 Xrotation Yrotation Zrotation
									JOINT Middle2.L
									{
										OFFSET 0.030898 0.000337 0.002494
										CHANNELS 3 Xrotation Yrotation Zrotation
										JOINT Middle3.L
										{
											OFFSET 0.021927 0.000239 0.001770
											CHANNELS 3 Xrotation Yrotation Zrotation
											End Site
											{
												OFFSET 0.017941 0.000196 0.001448
											}
										}
									}
								}
								JOINT Ring1.L
								{
									OFFSET 0.101604 0.001306 0.009654
									CHANNELS 3 Xrotation Yrotation Zrotation
									JOINT Ring2.L
									{
										OFFSET 0.028904 0.000316 0.002333
										CHANNELS 3 Xrotation Yrotation Zrotation
										JOINT Ring3.L
										{
											OFFSET 0.019934 0.000218 0.001609
											CHANNELS 3 Xrotation Yrotation Zrotation
											End Site
											{
												OFFSET 0.016944 0.000185 0.001368
											}
										}
									}
								}
								JOINT Pinky1.L
								{
									OFFSET 0.085604 0.001306 0.009654
									CHANNELS 3 Xrotation Yrotation Zrotation
									JOINT Pinky2.L
									{
										OFFSET 0.023921 0.000261 0.001931
										CHANNELS 3 Xrotation Yrotation Zrotation
										JOINT Pinky3.L
										{
											OFFSET 0.016944 0.000185 0.001368
											CHANNELS 3 Xrotation Yrotation Zrotation
											End Site
											{
												OFFSET 0.013954 0.000152 0.001126
											}
										}
									}
								}
							}
						}
					}
				}
				JOINT Clavicle.R
				{
					OFFSET -0.045083 0.010565 0.084169
					CHANNELS 3 Xrotation Yrotation Zrotation
					JOINT UpperArm.R
					{
						OFFSET -0.103147 0.009682 0.054976
						CHANNELS 3 Xrotation Yrotation Zrotation
						JOINT ForeArm.R
						{
							OFFSET -0.283060 0.025610 -0.041021
							CHANNELS 3 Xrotation Yrotation Zrotation
							JOINT Hand.R
							{
								OFFSET -0.263733 0.015956 -0.004729
								CHANNELS 3 Xrotation Yrotation Zrotation
								JOINT Thumb1.R
								{
									OFFSET -0.154762 0.007246 -0.002147
									CHANNELS 3 Xrotation Yrotation Zrotation
									JOINT Thumb2.R
									{
										OFFSET -0.029940 0.001811 -0.000537
										CHANNELS 3 Xrotation Yrotation Zrotation
										End Site
										{
											OFFSET -0.024950 0.001510 -0.000447
										}
									}
								}
								JOINT Index1.R
								{
									OFFSET -0.137762 0.007246 -0.002147
									CHANNELS 3 Xrotation Yrotation Zrotation
									JOINT Index2.R
									{
										OFFSET -0.029940 0.001811 -0.000537
										CHANNELS 3 Xrotation Yrotation Zrotation
										JOINT Index3.R
										{
											OFFSET -0.021956 0.001328 -0.000394
											CHANNELS 3 Xrotation Yrotation Zrotation
											End Site
											{
												OFFSET -0.017964 0.001087 -0.000322
											}
										}
									}
								}
								JOINT Middle1.R
								{
									OFFSET -0.119762 0.007246 -0.002147
									CHANNELS 3 Xrotation Yrotation Zrotation
									JOINT Middle2.R
									{
										OFFSET -0.030938 0.001872 -0.000555
										CHANNELS 3 Xrotation Yrotation Zrotation
										JOINT Middle3.R
										{
											OFFSET -0.021956 0.001328 -0.000394
											CHANNELS 3 Xrotation Yrotation Zrotation
											End Site
											{
												OFFSET -0.017964 0.001087 -0.000322
											}
										}
									}
								}
								JOINT Ring1.R
								{
									OFFSET -0.101762 0.007246 -0.002147
									CHANNELS 3 Xrotation Yrotation Zrotation
									JOINT Ring2.R
									{
										OFFSET -0.028942 0.001751 -0.000519
										CHANNELS 3 Xrotation Yrotation Zrotation
										JOINT Ring3.R
										{
											OFFSET -0.019960 0.001208 -0.000358
											CHANNELS 3 Xrotation Yrotation Zrotation
											End Site
											{
												OFFSET -0.016966 0.001027 -0.000304
											}
										}
									}
								}
								JOINT Pinky1.R
								{
									OFFSET -0.085762 0.007246 -0.002147
									CHANNELS 3 Xrotation Yrotation Zrotation
									JOINT Pinky2.R
									{
										OFFSET -0.023952 0.001449 -0.000429
										CHANNELS 3 Xrotation Yrotation Zrotation
										JOINT Pinky3.R
										{
											OFFSET -0.016966 0.001027 -0.000304
											CHANNELS 3 Xrotation Yrotation Zrotation
											End Site
											{
												OFFSET -0.013972 0.000845 -0.000251
											}
										}
									}
								}
							}
						}
					}
				}
			}
		}
	}
}
MOTION
Frames: 6
Frame Time: 0.04166667
-0.000475 -0.080669 1.518977 -12.207902 0.531984 1.354301 9.216554 0.612838 3.473331 4.018112 -1.006784 0.062241 5.301738 5.286959 9.844344 1.135698 -1.324738 -0.038663 3.780808 -1.241546 -2.864906 10.293410 1.469228 -4.100152 12.025662 -6.962557 -5.472330 -0.104471 1.755886 0.307345 5.182717 -0.565800 1.199674 6.333247 -1.472831 -2.796105 -2.334991 -0.036256 0.349822 6.565678 4.348219 0.646062 0.206058 -3.777682 7.534651 7.938677 21.390585 -3.505098 18.538091 47.907572 -17.539727 13.757999 -2.959646 -23.189269 8.825353 3.140129 -14.543058 0.000000 0.000000 0.000000 0.000000 0.000000 0.000000 0.000000 0.000000 0.000000 0.000000 0.000000 0.000000 0.000000 0.000000 0.000000 0.000000 0.000000 0.000000 0.000000 0.000000 0.000000 0.000000 0.000000 0.000000 0.000000 0.000000 0.000000 0.000000 0.000000 0.000000 0.000000 0.000000 0.000000 0.000000 0.000000 0.000000 0.000000 0.000000 0.000000 0.000000 0.000000 0.000000 5.959705 -12.080702 7.685909 26.463987 -55.236297 21.702569 12.000754 3.805621 24.294115 4.603922 -3.103107 9.756507 0.000000 0.000000 0.000000 0.000000 0.000000 0.000000 0.000000 0.000000 0.000000 0.000000 0.000000 0.000000 0.000000 0.000000 0.000000 0.000000 0.000000 0.000000 0.000000 0.000000 0.000000 0.000000 0.000000 0.000000 0.000000 0.000000 0.000000 0.000000 0.000000 0.000000 0.000000 0.000000 0.000000 0.000000 0.000000 0.000000 0.000000 0.000000 0.000000 0.000000 0.000000 0.000000
0.000047 -0.078731 1.519375 -12.227041 0.515385 1.225180 9.494890 0.719371 3.517612 3.676208 -1.146854 0.136762 5.456307 5.339268 9.853496 1.139286 -1.344347 -0.055814 3.892356 -1.243742 -2.864897 10.232827 1.528622 -4.106459 12.138629 -6.991345 -5.405171 -0.089890 1.790840 0.330813 5.020428 -0.575454 1.181070 6.356229 -1.403194 -2.794358 -2.224953 -0.068779 0.333608 6.344322 4.367575 0.771113 0.080424 -3.623910 7.542478 7.826604 21.390744 -3.328497 18.600401 48.043795 -17.413142 13.668083 -2.971655 -22.996908 8.901947 3.488643 -14.479586 0.000000 0.000000 0.000000 0.000000 0.000000 0.000000 0.000000 0.000000 0.000000 0.000000 0.000000 0.000000 0.000000 0.000000 0.000000 0.000000 0.000000 0.000000 0.000000 0.000000 0.000000 0.000000 0.000000 0.000000 0.000000 0.000000 0.000000 0.000000 0.000000 0.000000 0.000000 0.000000 0.000000 0.000000 0.000000 0.000000 0.000000 0.000000 0.000000 0.000000 0.000000 0.000000 5.871042 -12.037987 7.602379 26.678798 -55.357017 21.777660 11.936513 3.783711 24.304310 4.456617 -3.361100 9.770458 0.000000 0.000000 0.000000 0.000000 0.000000 0.000000 0.000000 0.000000 0.000000 0.000000 0.000000 0.000000 0.000000 0.000000 0.000000 0.000000 0.000000 0.000000 0.000000 0.000000 0.000000 0.000000 0.000000 0.000000 0.000000 0.000000 0.000000 0.000000 0.000000 0.000000 0.000000 0.000000 0.000000 0.000000 0.000000 0.000000 0.000000 0.000000 0.000000 0.000000 0.000000 0.000000
0.000578 -0.077117 1.519518 -12.256219 0.474974 1.152052 9.693731 0.788731 3.549435 3.438270 -1.211817 0.254723 5.541243 5.366000 9.808577 1.157461 -1.337035 -0.067783 3.966548 -1.228542 -2.843124 10.219738 1.584526 -4.114067 12.181333 -6.938727 -5.385560 -0.069620 1.769516 0.332612 4.896456 -0.570038 1.167814 6.414570 -1.351959 -2.781830 -2.157724 -0.100777 0.330393 6.145248 4.404603 0.907489 -0.021139 -3.554024 7.696747 7.681984 21.379552 -3.192520 18.731703 48.128770 -17.321401 13.542229 -2.921205 -22.934589 8.812239 3.739139 -14.499940 0.000000 0.000000 0.000000 0.000000 0.000000 0.000000 0.000000 0.000000 0.000000 0.000000 0.000000 0.000000 0.000000 0.000000 0.000000 0.000000 0.000000 0.000000 0.000000 0.000000 0.000000 0.000000 0.000000 0.000000 0.000000 0.000000 0.000000 0.000000 0.000000 0.000000 0.000000 0.000000 0.000000 0.000000 0.000000 0.000000 0.000000 0.000000 0.000000 0.000000 0.000000 0.000000 5.798508 -12.041714 7.502823 26.880630 -55.407679 21.783534 11.752766 3.767620 24.432370 4.306974 -3.556133 9.815695 0.000000 0.000000 0.000000 0.000000 0.000000 0.000000 0.000000 0.000000 0.000000 0.000000 0.000000 0.000000 0.000000 0.000000 0.000000 0.000000 0.000000 0.000000 0.000000 0.000000 0.000000 0.000000 0.000000 0.000000 0.000000 0.000000 0.000000 0.000000 0.000000 0.000000 0.000000 0.000000 0.000000 0.000000 0.000000 0.000000 0.000000 0.000000 0.000000 0.000000 0.000000 0.000000
0.001132 -0.076612 1.519414 -12.318843 0.448277 1.120094 9.741777 0.811404 3.552925 3.431613 -1.257795 0.312670 5.536659 5.342604 9.800225 1.154509 -1.333610 -0.077515 3.918672 -1.213001 -2.820763 10.392679 1.587210 -4.181874 12.150970 -6.904425 -5.398660 -0.056983 1.756444 0.335016 4.947901 -0.571748 1.155914 6.385061 -1.287193 -2.756249 -2.047096 -0.148611 0.330865 6.015601 4.442054 1.080742 -0.031358 -3.479669 7.835342 7.585289 21.319319 -3.177949 18.799272 48.178814 -17.287770 13.525471 -2.878172 -22.904943 8.655589 3.901353 -14.493622 0.000000 0.000000 0.000000 0.000000 0.000000 0.000000 0.000000 0.000000 0.000000 0.000000 0.000000 0.000000 0.000000 0.000000 0.000000 0.000000 0.000000 0.000000 0.000000 0.000000 0.000000 0.000000 0.000000 0.000000 0.000000 0.000000 0.000000 0.000000 0.000000 0.000000 0.000000 0.000000 0.000000 0.000000 0.000000 0.000000 0.000000 0.000000 0.000000 0.000000 0.000000 0.000000 5.722990 -12.010805 7.478746 27.039223 -55.469915 21.846310 11.645119 3.766385 24.512700 4.104608 -3.672828 9.804137 0.000000 0.000000 0.000000 0.000000 0.000000 0.000000 0.000000 0.000000 0.000000 0.000000 0.000000 0.000000 0.000000 0.000000 0.000000 0.000000 0.000000 0.000000 0.000000 0.000000 0.000000 0.000000 0.000000 0.000000 0.000000 0.000000 0.000000 0.000000 0.000000 0.000000 0.000000 0.000000 0.000000 0.000000 0.000000 0.000000 0.000000 0.000000 0.000000 0.000000 0.000000 0.000000
0.001368 -0.076300 1.519038 -12.305667 0.422473 1.096570 9.626797 0.848566 3.516761 3.509655 -1.288969 0.369504 5.450007 5.306155 9.851989 1.153178 -1.344887 -0.088504 3.722364 -1.185950 -2.780960 10.627457 1.584328 -4.262245 12.035341 -6.902512 -5.498110 -0.036542 1.758278 0.342218 5.031773 -0.574626 1.127674 6.356353 -1.262230 -2.756645 -1.992226 -0.177462 0.335713 5.946820 4.508461 1.244349 -0.038366 -3.431453 8.020230 7.562906 21.259815 -3.261414 18.848392 48.233092 -17.323699 13.547179 -2.830634 -22.826681 8.575223 3.995838 -14.498302 0.000000 0.000000 0.000000 0.000000 0.000000 0.000000 0.000000 0.000000 0.000000 0.000000 0.000000 0.000000 0.000000 0.000000 0.000000 0.000000 0.000000 0.000000 0.000000 0.000000 0.000000 0.000000 0.000000 0.000000 0.000000 0.000000 0.000000 0.000000 0.000000 0.000000 0.000000 0.000000 0.000000 0.000000 0.000000 0.000000 0.000000 0.000000 0.000000 0.000000 0.000000 0.000000 5.683573 -11.953635 7.506771 27.152419 -55.499237 21.954639 11.591556 3.803670 24.539651 3.990353 -3.730066 9.814748 0.000000 0.000000 0.000000 0.000000 0.000000 0.000000 0.000000 0.000000 0.000000 0.000000 0.000000 0.000000 0.000000 0.000000 0.000000 0.000000 0.000000 0.000000 0.000000 0.000000 0.000000 0.000000 0.000000 0.000000 0.000000 0.000000 0.000000 0.000000 0.000000 0.000000 0.000000 0.000000 0.000000 0.000000 0.000000 0.000000 0.000000 0.000000 0.000000 0.000000 0.000000 0.000000
0.001788 -0.077483 1.518601 -12.336716 0.344468 1.135490 9.309614 0.898363 3.418197 3.953682 -1.269826 0.307907 5.281405 5.249559 9.976903 1.118157 -1.404216 -0.091793 3.270946 -1.131037 -2.631653 11.334628 1.573833 -4.328317 11.823589 -6.776818 -5.711605 -0.022173 1.695858 0.326281 5.290573 -0.561694 1.095481 6.292640 -1.226269 -2.752709 -1.892270 -0.178782 0.353111 5.935254 4.629736 1.466813 -0.013644 -3.318356 8.154986 7.535165 21.180663 -3.448609 18.866757 48.153254 -17.447801 13.786274 -2.826718 -22.854677 8.625451 4.017922 -14.467114 0.000000 0.000000 0.000000 0.000000 0.000000 0.000000 0.000000 0.000000 0.000000 0.000000 0.000000 0.000000 0.000000 0.000000 0.000000 0.000000 0.000000 0.000000 0.000000 0.000000 0.000000 0.000000 0.000000 0.000000 0.000000 0.000000 0.000000 0.000000 0.000000 0.000000 0.000000 0.000000 0.000000 0.000000 0.000000 0.000000 0.000000 0.000000 0.000000 0.000000 0.000000 0.000000 5.610400 -11.922079 7.592903 27.174879 -55.494296 22.061046 11.606941 3.882126 24.579740 3.938875 -3.745474 9.787582 0.000000 0.000000 0.000000 0.000000 0.000000 0.000000 0.000000 0.000000 0.000000 0.000000 0.000000 0.000000 0.000000 0.000000 0.000000 0.000000 0.000000 0.000000 0.000000 0.000000 0.000000 0.000000 0.000000 0.000000 0.000000 0.000000 0.000000 0.000000 0.000000 0.000000 0.000000 0.000000 0.000000 0.000000 0.000000 0.000000 0.000000 0.000000 0.000000 0.000000 0.000000 0.000000
